<svg id="레이어_1" data-name="레이어 1" xmlns="http://www.w3.org/2000/svg" viewBox="0 0 500 500"><defs><style>.cls-1{fill:#fff;}</style></defs><path class="cls-1" d="M137.2,369.8c0,8.8,3.6,12.8,10,12.8,8.4,0,20.4-18.8,28.8-50.8C152.4,345,137.2,359,137.2,369.8Z" transform="translate(-0.8)"/><path class="cls-1" d="M421.3,0H80.3A79.5,79.5,0,0,0,.8,79.5v341A79.5,79.5,0,0,0,80.3,500h341a79.5,79.5,0,0,0,79.5-79.5V79.5A79.5,79.5,0,0,0,421.3,0ZM365.2,414.6c-38,0-69.2-40.4-72-123.6-12,2.4-24.8,5.2-36.8,8.4C250.8,380.2,209.2,417,161.2,417c-33.2,0-73.6-28-73.6-58.4,0-36.8,42.8-64,97.2-82q1.2-13.8,1.2-28.8c0-79.2-17.6-111.2-34.8-111.2s-44.4,20-44.4,72c0,30.4,13.2,36.8,27.2,36.8,11.6,0,16.4-6.4,20.4-6.4s6.8,3.2,6.8,7.6c0,6.4-18.8,29.2-49.6,29.2-32,0-63.2-18.4-63.2-64.8,0-62,62.4-107.6,105.6-107.6,49.6,0,97.6,38,102.8,156,12.4-2,24.8-3.6,36.8-4.8,2.4-46,10.8-88.8,20.8-112.4,19.2-45.6,38.4-59.2,56-59.2,11.2,0,26.8,8,26.8,13.2s-16.8,20.8-26.4,77.6C367.2,194.6,366,217,366,239v14.4c26.4,3.2,46.8,10.4,46.8,16S395.2,295,389.2,295c-3.2,0-10.8-2-20.8-4.4,1.6,17.6,3.6,32.8,6,44,6.8,34,18,38.4,28.8,38.4s26.8-30.4,29.6-37.2,5.2-12,9.6-12,10.8,11.6,10.8,22.4S425.2,414.6,365.2,414.6Z" transform="translate(-0.8)"/></svg>